<?xml version="1.0" encoding="UTF-8" standalone="no"?><svg xmlns="http://www.w3.org/2000/svg" xmlns:xlink="http://www.w3.org/1999/xlink" clip-rule="evenodd" stroke-miterlimit="10" viewBox="0 0 1024 768"><desc>SVG generated by Keynote</desc><defs></defs><g transform="matrix(1.00, 0.00, -0.00, -1.00, 0.0, 768.0)"><g><clipPath id="clip0x7f8c5893fb30"><path d="M 0.0 768.0 L 1024.0 768.0 L 1024.0 0.0 L 0.0 0.0 Z M 0.0 768.0 "></path></clipPath><g clip-path="url(#clip0x7f8c5893fb30)"><image xlink:href="../../BE4D2DDB-FBE4-467E-AE38-B34F9028D09E/assets/9397CAD6F20342ACC2646ABBCA758461.jpeg" width="2048.00" height="1536.00" transform="matrix(0.50, 0.00, -0.00, -0.50, 0.0, 768.0)"></image></g></g><image xlink:href="413CA0DAC157F0B8DCF9EB18C844A1A3.png" width="519.00" height="67.00" transform="matrix(1.00, 0.00, -0.00, -1.00, 254.0, 689.0)"></image><text xml:space="preserve" font-family="HelveticaNeue-Bold,Helvetica Neue" font-weight="bold" font-size="64.0" fill="#FEFFFE" transform="matrix(1.00, 0.00, -0.00, -1.00, 253.6, 640.7)">H</text><text xml:space="preserve" font-family="HelveticaNeue-Bold,Helvetica Neue" font-weight="bold" font-size="64.0" fill="#FEFFFE" transform="matrix(1.00, 0.00, -0.00, -1.00, 301.1, 640.7)">o</text><text xml:space="preserve" font-family="HelveticaNeue-Bold,Helvetica Neue" font-weight="bold" font-size="64.0" fill="#FEFFFE" transform="matrix(1.00, 0.00, -0.00, -1.00, 340.2, 640.7)">w</text><text xml:space="preserve" font-family="HelveticaNeue-Bold,Helvetica Neue" font-weight="bold" font-size="64.0" fill="#FEFFFE" transform="matrix(1.00, 0.00, -0.00, -1.00, 392.3, 640.7)"> </text><text xml:space="preserve" font-family="HelveticaNeue-Bold,Helvetica Neue" font-weight="bold" font-size="64.0" fill="#FEFFFE" transform="matrix(1.00, 0.00, -0.00, -1.00, 410.0, 640.7)">w</text><text xml:space="preserve" font-family="HelveticaNeue-Bold,Helvetica Neue" font-weight="bold" font-size="64.0" fill="#FEFFFE" transform="matrix(1.00, 0.00, -0.00, -1.00, 462.1, 640.7)">e</text><text xml:space="preserve" font-family="HelveticaNeue-Bold,Helvetica Neue" font-weight="bold" font-size="64.0" fill="#FEFFFE" transform="matrix(1.00, 0.00, -0.00, -1.00, 498.9, 640.7)"> </text><text xml:space="preserve" font-family="HelveticaNeue-Bold,Helvetica Neue" font-weight="bold" font-size="64.0" fill="#FEFFFE" transform="matrix(1.00, 0.00, -0.00, -1.00, 516.7, 640.7)">g</text><text xml:space="preserve" font-family="HelveticaNeue-Bold,Helvetica Neue" font-weight="bold" font-size="64.0" fill="#FEFFFE" transform="matrix(1.00, 0.00, -0.00, -1.00, 555.8, 640.7)">o</text><text xml:space="preserve" font-family="HelveticaNeue-Bold,Helvetica Neue" font-weight="bold" font-size="64.0" fill="#FEFFFE" transform="matrix(1.00, 0.00, -0.00, -1.00, 594.9, 640.7)">t</text><text xml:space="preserve" font-family="HelveticaNeue-Bold,Helvetica Neue" font-weight="bold" font-size="64.0" fill="#FEFFFE" transform="matrix(1.00, 0.00, -0.00, -1.00, 617.4, 640.7)"> </text><text xml:space="preserve" font-family="HelveticaNeue-Bold,Helvetica Neue" font-weight="bold" font-size="64.0" fill="#FEFFFE" transform="matrix(1.00, 0.00, -0.00, -1.00, 635.2, 640.7)">h</text><text xml:space="preserve" font-family="HelveticaNeue-Bold,Helvetica Neue" font-weight="bold" font-size="64.0" fill="#FEFFFE" transform="matrix(1.00, 0.00, -0.00, -1.00, 673.2, 640.7)">e</text><text xml:space="preserve" font-family="HelveticaNeue-Bold,Helvetica Neue" font-weight="bold" font-size="64.0" fill="#FEFFFE" transform="matrix(1.00, 0.00, -0.00, -1.00, 709.9, 640.7)">r</text><text xml:space="preserve" font-family="HelveticaNeue-Bold,Helvetica Neue" font-weight="bold" font-size="64.0" fill="#FEFFFE" transform="matrix(1.00, 0.00, -0.00, -1.00, 733.6, 640.7)">e</text></g></svg>