<?xml version="1.0" encoding="UTF-8" standalone="no"?><svg xmlns="http://www.w3.org/2000/svg" xmlns:xlink="http://www.w3.org/1999/xlink" clip-rule="evenodd" stroke-miterlimit="10" viewBox="0 0 580 244"><desc>SVG generated by Keynote</desc><defs></defs><g transform="matrix(1.00, 0.00, -0.00, -1.00, 0.0, 244.0)"><image xlink:href="EBF4E50FBDB525A178FF4041B9CD4D95.png" width="558.00" height="36.00" transform="matrix(1.00, 0.00, -0.00, -1.00, 2.0, 242.0)"></image><text xml:space="preserve" font-family="HelveticaNeue-Medium,Helvetica Neue" font-size="28.9" fill="#EAEAEA" transform="matrix(1.00, 0.00, -0.00, -1.00, 5.9, 218.4)">O</text><text xml:space="preserve" font-family="HelveticaNeue-Medium,Helvetica Neue" font-size="28.9" fill="#EAEAEA" transform="matrix(1.00, 0.00, -0.00, -1.00, 27.8, 218.4)">u</text><text xml:space="preserve" font-family="HelveticaNeue-Medium,Helvetica Neue" font-size="28.9" fill="#EAEAEA" transform="matrix(1.00, 0.00, -0.00, -1.00, 44.4, 218.4)">r</text><text xml:space="preserve" font-family="HelveticaNeue-Medium,Helvetica Neue" font-size="28.9" fill="#EAEAEA" transform="matrix(1.00, 0.00, -0.00, -1.00, 54.6, 218.4)"> </text><text xml:space="preserve" font-family="HelveticaNeue-Medium,Helvetica Neue" font-size="28.9" fill="#EAEAEA" transform="matrix(1.00, 0.00, -0.00, -1.00, 62.6, 218.4)">o</text><text xml:space="preserve" font-family="HelveticaNeue-Medium,Helvetica Neue" font-size="28.9" fill="#EAEAEA" transform="matrix(1.00, 0.00, -0.00, -1.00, 79.8, 218.4)">r</text><text xml:space="preserve" font-family="HelveticaNeue-Medium,Helvetica Neue" font-size="28.9" fill="#EAEAEA" transform="matrix(1.00, 0.00, -0.00, -1.00, 89.9, 218.4)">i</text><text xml:space="preserve" font-family="HelveticaNeue-Medium,Helvetica Neue" font-size="28.9" fill="#EAEAEA" transform="matrix(1.00, 0.00, -0.00, -1.00, 96.9, 218.4)">g</text><text xml:space="preserve" font-family="HelveticaNeue-Medium,Helvetica Neue" font-size="28.9" fill="#EAEAEA" transform="matrix(1.00, 0.00, -0.00, -1.00, 114.0, 218.4)">i</text><text xml:space="preserve" font-family="HelveticaNeue-Medium,Helvetica Neue" font-size="28.9" fill="#EAEAEA" transform="matrix(1.00, 0.00, -0.00, -1.00, 121.0, 218.4)">n</text><text xml:space="preserve" font-family="HelveticaNeue-Medium,Helvetica Neue" font-size="28.9" fill="#EAEAEA" transform="matrix(1.00, 0.00, -0.00, -1.00, 137.6, 218.4)">a</text><text xml:space="preserve" font-family="HelveticaNeue-Medium,Helvetica Neue" font-size="28.9" fill="#EAEAEA" transform="matrix(1.00, 0.00, -0.00, -1.00, 153.7, 218.4)">l</text><text xml:space="preserve" font-family="HelveticaNeue-Medium,Helvetica Neue" font-size="28.9" fill="#EAEAEA" transform="matrix(1.00, 0.00, -0.00, -1.00, 160.6, 218.4)"> </text><text xml:space="preserve" font-family="HelveticaNeue-Medium,Helvetica Neue" font-size="28.9" fill="#EAEAEA" transform="matrix(1.00, 0.00, -0.00, -1.00, 168.7, 218.4)">t</text><text xml:space="preserve" font-family="HelveticaNeue-Medium,Helvetica Neue" font-size="28.9" fill="#EAEAEA" transform="matrix(1.00, 0.00, -0.00, -1.00, 178.3, 218.4)">h</text><text xml:space="preserve" font-family="HelveticaNeue-Medium,Helvetica Neue" font-size="28.9" fill="#EAEAEA" transform="matrix(1.00, 0.00, -0.00, -1.00, 194.9, 218.4)">o</text><text xml:space="preserve" font-family="HelveticaNeue-Medium,Helvetica Neue" font-size="28.9" fill="#EAEAEA" transform="matrix(1.00, 0.00, -0.00, -1.00, 212.0, 218.4)">u</text><text xml:space="preserve" font-family="HelveticaNeue-Medium,Helvetica Neue" font-size="28.9" fill="#EAEAEA" transform="matrix(1.00, 0.00, -0.00, -1.00, 228.6, 218.4)">g</text><text xml:space="preserve" font-family="HelveticaNeue-Medium,Helvetica Neue" font-size="28.9" fill="#EAEAEA" transform="matrix(1.00, 0.00, -0.00, -1.00, 245.7, 218.4)">h</text><text xml:space="preserve" font-family="HelveticaNeue-Medium,Helvetica Neue" font-size="28.9" fill="#EAEAEA" transform="matrix(1.00, 0.00, -0.00, -1.00, 262.3, 218.4)">t</text><text xml:space="preserve" font-family="HelveticaNeue-Medium,Helvetica Neue" font-size="28.9" fill="#EAEAEA" transform="matrix(1.00, 0.00, -0.00, -1.00, 272.0, 218.4)"> </text><text xml:space="preserve" font-family="HelveticaNeue-Medium,Helvetica Neue" font-size="28.9" fill="#EAEAEA" transform="matrix(1.00, 0.00, -0.00, -1.00, 280.0, 218.4)">w</text><text xml:space="preserve" font-family="HelveticaNeue-Medium,Helvetica Neue" font-size="28.9" fill="#EAEAEA" transform="matrix(1.00, 0.00, -0.00, -1.00, 302.5, 218.4)">a</text><text xml:space="preserve" font-family="HelveticaNeue-Medium,Helvetica Neue" font-size="28.9" fill="#EAEAEA" transform="matrix(1.00, 0.00, -0.00, -1.00, 318.5, 218.4)">s</text><text xml:space="preserve" font-family="HelveticaNeue-Medium,Helvetica Neue" font-size="28.9" fill="#EAEAEA" transform="matrix(1.00, 0.00, -0.00, -1.00, 333.5, 218.4)"> </text><text xml:space="preserve" font-family="HelveticaNeue-Medium,Helvetica Neue" font-size="28.9" fill="#EAEAEA" transform="matrix(1.00, 0.00, -0.00, -1.00, 341.6, 218.4)">t</text><text xml:space="preserve" font-family="HelveticaNeue-Medium,Helvetica Neue" font-size="28.9" fill="#EAEAEA" transform="matrix(1.00, 0.00, -0.00, -1.00, 351.2, 218.4)">o</text><text xml:space="preserve" font-family="HelveticaNeue-Medium,Helvetica Neue" font-size="28.9" fill="#EAEAEA" transform="matrix(1.00, 0.00, -0.00, -1.00, 368.3, 218.4)"> </text><text xml:space="preserve" font-family="HelveticaNeue-Medium,Helvetica Neue" font-size="28.9" fill="#EAEAEA" transform="matrix(1.00, 0.00, -0.00, -1.00, 376.4, 218.4)">i</text><text xml:space="preserve" font-family="HelveticaNeue-Medium,Helvetica Neue" font-size="28.9" fill="#EAEAEA" transform="matrix(1.00, 0.00, -0.00, -1.00, 383.3, 218.4)">m</text><text xml:space="preserve" font-family="HelveticaNeue-Medium,Helvetica Neue" font-size="28.9" fill="#EAEAEA" transform="matrix(1.00, 0.00, -0.00, -1.00, 408.5, 218.4)">p</text><text xml:space="preserve" font-family="HelveticaNeue-Medium,Helvetica Neue" font-size="28.9" fill="#EAEAEA" transform="matrix(1.00, 0.00, -0.00, -1.00, 426.1, 218.4)">l</text><text xml:space="preserve" font-family="HelveticaNeue-Medium,Helvetica Neue" font-size="28.9" fill="#EAEAEA" transform="matrix(1.00, 0.00, -0.00, -1.00, 433.1, 218.4)">e</text><text xml:space="preserve" font-family="HelveticaNeue-Medium,Helvetica Neue" font-size="28.9" fill="#EAEAEA" transform="matrix(1.00, 0.00, -0.00, -1.00, 449.2, 218.4)">m</text><text xml:space="preserve" font-family="HelveticaNeue-Medium,Helvetica Neue" font-size="28.9" fill="#EAEAEA" transform="matrix(1.00, 0.00, -0.00, -1.00, 474.3, 218.4)">e</text><text xml:space="preserve" font-family="HelveticaNeue-Medium,Helvetica Neue" font-size="28.9" fill="#EAEAEA" transform="matrix(1.00, 0.00, -0.00, -1.00, 490.4, 218.4)">n</text><text xml:space="preserve" font-family="HelveticaNeue-Medium,Helvetica Neue" font-size="28.9" fill="#EAEAEA" transform="matrix(1.00, 0.00, -0.00, -1.00, 507.0, 218.4)">t</text><text xml:space="preserve" font-family="HelveticaNeue-Medium,Helvetica Neue" font-size="28.9" fill="#EAEAEA" transform="matrix(1.00, 0.00, -0.00, -1.00, 516.6, 218.4)"> </text><text xml:space="preserve" font-family="HelveticaNeue-Medium,Helvetica Neue" font-size="28.9" fill="#EAEAEA" transform="matrix(1.00, 0.00, -0.00, -1.00, 524.6, 218.4)">a</text><text xml:space="preserve" font-family="HelveticaNeue-Medium,Helvetica Neue" font-size="28.9" fill="#EAEAEA" transform="matrix(1.00, 0.00, -0.00, -1.00, 540.7, 218.4)">n</text><text xml:space="preserve" font-family="HelveticaNeue-Medium,Helvetica Neue" font-size="28.9" fill="#EAEAEA" transform="matrix(1.00, 0.00, -0.00, -1.00, 557.3, 218.4)"> </text><image xlink:href="CBA14E6CEDEA9ABDB1F77AF916E51436.png" width="576.00" height="36.00" transform="matrix(1.00, 0.00, -0.00, -1.00, 2.0, 207.0)"></image><text xml:space="preserve" font-family="HelveticaNeue-Medium,Helvetica Neue" font-size="28.9" fill="#EAEAEA" transform="matrix(1.00, 0.00, -0.00, -1.00, 5.9, 183.4)">a</text><text xml:space="preserve" font-family="HelveticaNeue-Medium,Helvetica Neue" font-size="28.9" fill="#EAEAEA" transform="matrix(1.00, 0.00, -0.00, -1.00, 21.9, 183.4)">p</text><text xml:space="preserve" font-family="HelveticaNeue-Medium,Helvetica Neue" font-size="28.9" fill="#EAEAEA" transform="matrix(1.00, 0.00, -0.00, -1.00, 39.6, 183.4)">p</text><text xml:space="preserve" font-family="HelveticaNeue-Medium,Helvetica Neue" font-size="28.9" fill="#EAEAEA" transform="matrix(1.00, 0.00, -0.00, -1.00, 57.3, 183.4)">l</text><text xml:space="preserve" font-family="HelveticaNeue-Medium,Helvetica Neue" font-size="28.9" fill="#EAEAEA" transform="matrix(1.00, 0.00, -0.00, -1.00, 64.2, 183.4)">i</text><text xml:space="preserve" font-family="HelveticaNeue-Medium,Helvetica Neue" font-size="28.9" fill="#EAEAEA" transform="matrix(1.00, 0.00, -0.00, -1.00, 71.2, 183.4)">c</text><text xml:space="preserve" font-family="HelveticaNeue-Medium,Helvetica Neue" font-size="28.9" fill="#EAEAEA" transform="matrix(1.00, 0.00, -0.00, -1.00, 87.3, 183.4)">a</text><text xml:space="preserve" font-family="HelveticaNeue-Medium,Helvetica Neue" font-size="28.9" fill="#EAEAEA" transform="matrix(1.00, 0.00, -0.00, -1.00, 103.3, 183.4)">t</text><text xml:space="preserve" font-family="HelveticaNeue-Medium,Helvetica Neue" font-size="28.9" fill="#EAEAEA" transform="matrix(1.00, 0.00, -0.00, -1.00, 113.0, 183.4)">i</text><text xml:space="preserve" font-family="HelveticaNeue-Medium,Helvetica Neue" font-size="28.9" fill="#EAEAEA" transform="matrix(1.00, 0.00, -0.00, -1.00, 119.9, 183.4)">o</text><text xml:space="preserve" font-family="HelveticaNeue-Medium,Helvetica Neue" font-size="28.9" fill="#EAEAEA" transform="matrix(1.00, 0.00, -0.00, -1.00, 137.1, 183.4)">n</text><text xml:space="preserve" font-family="HelveticaNeue-Medium,Helvetica Neue" font-size="28.9" fill="#EAEAEA" transform="matrix(1.00, 0.00, -0.00, -1.00, 153.6, 183.4)"> </text><text xml:space="preserve" font-family="HelveticaNeue-Medium,Helvetica Neue" font-size="28.9" fill="#EAEAEA" transform="matrix(1.00, 0.00, -0.00, -1.00, 161.7, 183.4)">t</text><text xml:space="preserve" font-family="HelveticaNeue-Medium,Helvetica Neue" font-size="28.9" fill="#EAEAEA" transform="matrix(1.00, 0.00, -0.00, -1.00, 171.3, 183.4)">h</text><text xml:space="preserve" font-family="HelveticaNeue-Medium,Helvetica Neue" font-size="28.9" fill="#EAEAEA" transform="matrix(1.00, 0.00, -0.00, -1.00, 187.9, 183.4)">a</text><text xml:space="preserve" font-family="HelveticaNeue-Medium,Helvetica Neue" font-size="28.9" fill="#EAEAEA" transform="matrix(1.00, 0.00, -0.00, -1.00, 204.0, 183.4)">t</text><text xml:space="preserve" font-family="HelveticaNeue-Medium,Helvetica Neue" font-size="28.9" fill="#EAEAEA" transform="matrix(1.00, 0.00, -0.00, -1.00, 213.6, 183.4)"> </text><text xml:space="preserve" font-family="HelveticaNeue-Medium,Helvetica Neue" font-size="28.9" fill="#EAEAEA" transform="matrix(1.00, 0.00, -0.00, -1.00, 221.6, 183.4)">w</text><text xml:space="preserve" font-family="HelveticaNeue-Medium,Helvetica Neue" font-size="28.9" fill="#EAEAEA" transform="matrix(1.00, 0.00, -0.00, -1.00, 244.1, 183.4)">o</text><text xml:space="preserve" font-family="HelveticaNeue-Medium,Helvetica Neue" font-size="28.9" fill="#EAEAEA" transform="matrix(1.00, 0.00, -0.00, -1.00, 261.2, 183.4)">u</text><text xml:space="preserve" font-family="HelveticaNeue-Medium,Helvetica Neue" font-size="28.9" fill="#EAEAEA" transform="matrix(1.00, 0.00, -0.00, -1.00, 277.8, 183.4)">l</text><text xml:space="preserve" font-family="HelveticaNeue-Medium,Helvetica Neue" font-size="28.9" fill="#EAEAEA" transform="matrix(1.00, 0.00, -0.00, -1.00, 284.8, 183.4)">d</text><text xml:space="preserve" font-family="HelveticaNeue-Medium,Helvetica Neue" font-size="28.9" fill="#EAEAEA" transform="matrix(1.00, 0.00, -0.00, -1.00, 302.4, 183.4)"> </text><text xml:space="preserve" font-family="HelveticaNeue-Medium,Helvetica Neue" font-size="28.9" fill="#EAEAEA" transform="matrix(1.00, 0.00, -0.00, -1.00, 310.5, 183.4)">u</text><text xml:space="preserve" font-family="HelveticaNeue-Medium,Helvetica Neue" font-size="28.9" fill="#EAEAEA" transform="matrix(1.00, 0.00, -0.00, -1.00, 327.1, 183.4)">s</text><text xml:space="preserve" font-family="HelveticaNeue-Medium,Helvetica Neue" font-size="28.9" fill="#EAEAEA" transform="matrix(1.00, 0.00, -0.00, -1.00, 342.1, 183.4)">e</text><text xml:space="preserve" font-family="HelveticaNeue-Medium,Helvetica Neue" font-size="28.9" fill="#EAEAEA" transform="matrix(1.00, 0.00, -0.00, -1.00, 358.1, 183.4)"> </text><text xml:space="preserve" font-family="HelveticaNeue-Medium,Helvetica Neue" font-size="28.9" fill="#EAEAEA" transform="matrix(1.00, 0.00, -0.00, -1.00, 366.2, 183.4)">p</text><text xml:space="preserve" font-family="HelveticaNeue-Medium,Helvetica Neue" font-size="28.9" fill="#EAEAEA" transform="matrix(1.00, 0.00, -0.00, -1.00, 383.8, 183.4)">r</text><text xml:space="preserve" font-family="HelveticaNeue-Medium,Helvetica Neue" font-size="28.9" fill="#EAEAEA" transform="matrix(1.00, 0.00, -0.00, -1.00, 393.5, 183.4)">o</text><text xml:space="preserve" font-family="HelveticaNeue-Medium,Helvetica Neue" font-size="28.9" fill="#EAEAEA" transform="matrix(1.00, 0.00, -0.00, -1.00, 410.6, 183.4)">c</text><text xml:space="preserve" font-family="HelveticaNeue-Medium,Helvetica Neue" font-size="28.9" fill="#EAEAEA" transform="matrix(1.00, 0.00, -0.00, -1.00, 426.7, 183.4)">e</text><text xml:space="preserve" font-family="HelveticaNeue-Medium,Helvetica Neue" font-size="28.9" fill="#EAEAEA" transform="matrix(1.00, 0.00, -0.00, -1.00, 442.8, 183.4)">s</text><text xml:space="preserve" font-family="HelveticaNeue-Medium,Helvetica Neue" font-size="28.9" fill="#EAEAEA" transform="matrix(1.00, 0.00, -0.00, -1.00, 457.8, 183.4)">s</text><text xml:space="preserve" font-family="HelveticaNeue-Medium,Helvetica Neue" font-size="28.9" fill="#EAEAEA" transform="matrix(1.00, 0.00, -0.00, -1.00, 472.8, 183.4)">e</text><text xml:space="preserve" font-family="HelveticaNeue-Medium,Helvetica Neue" font-size="28.9" fill="#EAEAEA" transform="matrix(1.00, 0.00, -0.00, -1.00, 488.8, 183.4)">d</text><text xml:space="preserve" font-family="HelveticaNeue-Medium,Helvetica Neue" font-size="28.9" fill="#EAEAEA" transform="matrix(1.00, 0.00, -0.00, -1.00, 506.5, 183.4)"> </text><text xml:space="preserve" font-family="HelveticaNeue-Medium,Helvetica Neue" font-size="28.9" fill="#EAEAEA" transform="matrix(1.00, 0.00, -0.00, -1.00, 514.5, 183.4)">d</text><text xml:space="preserve" font-family="HelveticaNeue-Medium,Helvetica Neue" font-size="28.9" fill="#EAEAEA" transform="matrix(1.00, 0.00, -0.00, -1.00, 532.2, 183.4)">a</text><text xml:space="preserve" font-family="HelveticaNeue-Medium,Helvetica Neue" font-size="28.9" fill="#EAEAEA" transform="matrix(1.00, 0.00, -0.00, -1.00, 548.2, 183.4)">t</text><text xml:space="preserve" font-family="HelveticaNeue-Medium,Helvetica Neue" font-size="28.9" fill="#EAEAEA" transform="matrix(1.00, 0.00, -0.00, -1.00, 557.9, 183.4)">a</text><text xml:space="preserve" font-family="HelveticaNeue-Medium,Helvetica Neue" font-size="28.9" fill="#EAEAEA" transform="matrix(1.00, 0.00, -0.00, -1.00, 573.9, 183.4)"> </text><image xlink:href="AC28BA4C6E08EF8F9A270EBDC8F3E8D8.png" width="481.00" height="36.00" transform="matrix(1.00, 0.00, -0.00, -1.00, 2.0, 172.0)"></image><text xml:space="preserve" font-family="HelveticaNeue-Medium,Helvetica Neue" font-size="28.9" fill="#EAEAEA" transform="matrix(1.00, 0.00, -0.00, -1.00, 5.9, 148.4)">f</text><text xml:space="preserve" font-family="HelveticaNeue-Medium,Helvetica Neue" font-size="28.9" fill="#EAEAEA" transform="matrix(1.00, 0.00, -0.00, -1.00, 15.0, 148.4)">r</text><text xml:space="preserve" font-family="HelveticaNeue-Medium,Helvetica Neue" font-size="28.9" fill="#EAEAEA" transform="matrix(1.00, 0.00, -0.00, -1.00, 24.6, 148.4)">o</text><text xml:space="preserve" font-family="HelveticaNeue-Medium,Helvetica Neue" font-size="28.9" fill="#EAEAEA" transform="matrix(1.00, 0.00, -0.00, -1.00, 41.8, 148.4)">m</text><text xml:space="preserve" font-family="HelveticaNeue-Medium,Helvetica Neue" font-size="28.9" fill="#EAEAEA" transform="matrix(1.00, 0.00, -0.00, -1.00, 66.9, 148.4)"> </text><text xml:space="preserve" font-family="HelveticaNeue-Medium,Helvetica Neue" font-size="28.9" fill="#EAEAEA" transform="matrix(1.00, 0.00, -0.00, -1.00, 74.9, 148.4)">a</text><text xml:space="preserve" font-family="HelveticaNeue-Medium,Helvetica Neue" font-size="28.9" fill="#EAEAEA" transform="matrix(1.00, 0.00, -0.00, -1.00, 91.0, 148.4)">n</text><text xml:space="preserve" font-family="HelveticaNeue-Medium,Helvetica Neue" font-size="28.9" fill="#EAEAEA" transform="matrix(1.00, 0.00, -0.00, -1.00, 107.6, 148.4)"> </text><text xml:space="preserve" font-family="HelveticaNeue-Medium,Helvetica Neue" font-size="28.9" fill="#EAEAEA" transform="matrix(1.00, 0.00, -0.00, -1.00, 115.6, 148.4)">i</text><text xml:space="preserve" font-family="HelveticaNeue-Medium,Helvetica Neue" font-size="28.9" fill="#EAEAEA" transform="matrix(1.00, 0.00, -0.00, -1.00, 122.6, 148.4)">m</text><text xml:space="preserve" font-family="HelveticaNeue-Medium,Helvetica Neue" font-size="28.9" fill="#EAEAEA" transform="matrix(1.00, 0.00, -0.00, -1.00, 147.7, 148.4)">a</text><text xml:space="preserve" font-family="HelveticaNeue-Medium,Helvetica Neue" font-size="28.9" fill="#EAEAEA" transform="matrix(1.00, 0.00, -0.00, -1.00, 163.8, 148.4)">g</text><text xml:space="preserve" font-family="HelveticaNeue-Medium,Helvetica Neue" font-size="28.9" fill="#EAEAEA" transform="matrix(1.00, 0.00, -0.00, -1.00, 181.0, 148.4)">e</text><text xml:space="preserve" font-family="HelveticaNeue-Medium,Helvetica Neue" font-size="28.9" fill="#EAEAEA" transform="matrix(1.00, 0.00, -0.00, -1.00, 197.0, 148.4)"> </text><text xml:space="preserve" font-family="HelveticaNeue-Medium,Helvetica Neue" font-size="28.9" fill="#EAEAEA" transform="matrix(1.00, 0.00, -0.00, -1.00, 205.1, 148.4)">a</text><text xml:space="preserve" font-family="HelveticaNeue-Medium,Helvetica Neue" font-size="28.9" fill="#EAEAEA" transform="matrix(1.00, 0.00, -0.00, -1.00, 221.1, 148.4)">n</text><text xml:space="preserve" font-family="HelveticaNeue-Medium,Helvetica Neue" font-size="28.9" fill="#EAEAEA" transform="matrix(1.00, 0.00, -0.00, -1.00, 237.7, 148.4)">d</text><text xml:space="preserve" font-family="HelveticaNeue-Medium,Helvetica Neue" font-size="28.9" fill="#EAEAEA" transform="matrix(1.00, 0.00, -0.00, -1.00, 255.4, 148.4)"> </text><text xml:space="preserve" font-family="HelveticaNeue-Medium,Helvetica Neue" font-size="28.9" fill="#EAEAEA" transform="matrix(1.00, 0.00, -0.00, -1.00, 263.4, 148.4)">g</text><text xml:space="preserve" font-family="HelveticaNeue-Medium,Helvetica Neue" font-size="28.9" fill="#EAEAEA" transform="matrix(1.00, 0.00, -0.00, -1.00, 280.5, 148.4)">e</text><text xml:space="preserve" font-family="HelveticaNeue-Medium,Helvetica Neue" font-size="28.9" fill="#EAEAEA" transform="matrix(1.00, 0.00, -0.00, -1.00, 296.6, 148.4)">n</text><text xml:space="preserve" font-family="HelveticaNeue-Medium,Helvetica Neue" font-size="28.9" fill="#EAEAEA" transform="matrix(1.00, 0.00, -0.00, -1.00, 313.2, 148.4)">e</text><text xml:space="preserve" font-family="HelveticaNeue-Medium,Helvetica Neue" font-size="28.9" fill="#EAEAEA" transform="matrix(1.00, 0.00, -0.00, -1.00, 329.3, 148.4)">r</text><text xml:space="preserve" font-family="HelveticaNeue-Medium,Helvetica Neue" font-size="28.9" fill="#EAEAEA" transform="matrix(1.00, 0.00, -0.00, -1.00, 339.4, 148.4)">a</text><text xml:space="preserve" font-family="HelveticaNeue-Medium,Helvetica Neue" font-size="28.9" fill="#EAEAEA" transform="matrix(1.00, 0.00, -0.00, -1.00, 355.5, 148.4)">t</text><text xml:space="preserve" font-family="HelveticaNeue-Medium,Helvetica Neue" font-size="28.9" fill="#EAEAEA" transform="matrix(1.00, 0.00, -0.00, -1.00, 365.1, 148.4)">e</text><text xml:space="preserve" font-family="HelveticaNeue-Medium,Helvetica Neue" font-size="28.9" fill="#EAEAEA" transform="matrix(1.00, 0.00, -0.00, -1.00, 381.2, 148.4)"> </text><text xml:space="preserve" font-family="HelveticaNeue-Medium,Helvetica Neue" font-size="28.9" fill="#EAEAEA" transform="matrix(1.00, 0.00, -0.00, -1.00, 389.2, 148.4)">s</text><text xml:space="preserve" font-family="HelveticaNeue-Medium,Helvetica Neue" font-size="28.9" fill="#EAEAEA" transform="matrix(1.00, 0.00, -0.00, -1.00, 404.2, 148.4)">o</text><text xml:space="preserve" font-family="HelveticaNeue-Medium,Helvetica Neue" font-size="28.9" fill="#EAEAEA" transform="matrix(1.00, 0.00, -0.00, -1.00, 421.4, 148.4)">u</text><text xml:space="preserve" font-family="HelveticaNeue-Medium,Helvetica Neue" font-size="28.9" fill="#EAEAEA" transform="matrix(1.00, 0.00, -0.00, -1.00, 438.0, 148.4)">n</text><text xml:space="preserve" font-family="HelveticaNeue-Medium,Helvetica Neue" font-size="28.9" fill="#EAEAEA" transform="matrix(1.00, 0.00, -0.00, -1.00, 454.5, 148.4)">d</text><text xml:space="preserve" font-family="HelveticaNeue-Medium,Helvetica Neue" font-size="28.9" fill="#EAEAEA" transform="matrix(1.00, 0.00, -0.00, -1.00, 472.2, 148.4)">.</text><text xml:space="preserve" font-family="HelveticaNeue-Medium,Helvetica Neue" font-size="28.9" fill="#EAEAEA" transform="matrix(1.00, 0.00, -0.00, -1.00, 480.2, 148.4)"> </text><text xml:space="preserve" font-family="HelveticaNeue-Medium,Helvetica Neue" font-size="28.9" fill="#EAEAEA" transform="matrix(1.00, 0.00, -0.00, -1.00, 488.3, 148.4)"> </text><text xml:space="preserve" font-family="HelveticaNeue-Medium,Helvetica Neue" font-size="28.9" fill="#EAEAEA" transform="matrix(1.00, 0.00, -0.00, -1.00, 496.3, 148.4)"> </text><image xlink:href="32063C298B54FFC1D3B6F05EF7C0696D.png" width="547.00" height="35.00" transform="matrix(1.00, 0.00, -0.00, -1.00, 2.0, 101.0)"></image><text xml:space="preserve" font-family="HelveticaNeue-Medium,Helvetica Neue" font-size="28.9" fill="#EAEAEA" transform="matrix(1.00, 0.00, -0.00, -1.00, 5.9, 77.7)">T</text><text xml:space="preserve" font-family="HelveticaNeue-Medium,Helvetica Neue" font-size="28.9" fill="#EAEAEA" transform="matrix(1.00, 0.00, -0.00, -1.00, 23.0, 77.7)">h</text><text xml:space="preserve" font-family="HelveticaNeue-Medium,Helvetica Neue" font-size="28.9" fill="#EAEAEA" transform="matrix(1.00, 0.00, -0.00, -1.00, 39.6, 77.7)">i</text><text xml:space="preserve" font-family="HelveticaNeue-Medium,Helvetica Neue" font-size="28.9" fill="#EAEAEA" transform="matrix(1.00, 0.00, -0.00, -1.00, 46.6, 77.7)">s</text><text xml:space="preserve" font-family="HelveticaNeue-Medium,Helvetica Neue" font-size="28.9" fill="#EAEAEA" transform="matrix(1.00, 0.00, -0.00, -1.00, 61.6, 77.7)"> </text><text xml:space="preserve" font-family="HelveticaNeue-Medium,Helvetica Neue" font-size="28.9" fill="#EAEAEA" transform="matrix(1.00, 0.00, -0.00, -1.00, 69.6, 77.7)">p</text><text xml:space="preserve" font-family="HelveticaNeue-Medium,Helvetica Neue" font-size="28.9" fill="#EAEAEA" transform="matrix(1.00, 0.00, -0.00, -1.00, 87.3, 77.7)">r</text><text xml:space="preserve" font-family="HelveticaNeue-Medium,Helvetica Neue" font-size="28.9" fill="#EAEAEA" transform="matrix(1.00, 0.00, -0.00, -1.00, 96.9, 77.7)">o</text><text xml:space="preserve" font-family="HelveticaNeue-Medium,Helvetica Neue" font-size="28.9" fill="#EAEAEA" transform="matrix(1.00, 0.00, -0.00, -1.00, 114.0, 77.7)">v</text><text xml:space="preserve" font-family="HelveticaNeue-Medium,Helvetica Neue" font-size="28.9" fill="#EAEAEA" transform="matrix(1.00, 0.00, -0.00, -1.00, 129.0, 77.7)">e</text><text xml:space="preserve" font-family="HelveticaNeue-Medium,Helvetica Neue" font-size="28.9" fill="#EAEAEA" transform="matrix(1.00, 0.00, -0.00, -1.00, 145.1, 77.7)">d</text><text xml:space="preserve" font-family="HelveticaNeue-Medium,Helvetica Neue" font-size="28.9" fill="#EAEAEA" transform="matrix(1.00, 0.00, -0.00, -1.00, 162.8, 77.7)"> </text><text xml:space="preserve" font-family="HelveticaNeue-Medium,Helvetica Neue" font-size="28.9" fill="#EAEAEA" transform="matrix(1.00, 0.00, -0.00, -1.00, 170.8, 77.7)">t</text><text xml:space="preserve" font-family="HelveticaNeue-Medium,Helvetica Neue" font-size="28.9" fill="#EAEAEA" transform="matrix(1.00, 0.00, -0.00, -1.00, 180.4, 77.7)">o</text><text xml:space="preserve" font-family="HelveticaNeue-Medium,Helvetica Neue" font-size="28.9" fill="#EAEAEA" transform="matrix(1.00, 0.00, -0.00, -1.00, 197.6, 77.7)"> </text><text xml:space="preserve" font-family="HelveticaNeue-Medium,Helvetica Neue" font-size="28.9" fill="#EAEAEA" transform="matrix(1.00, 0.00, -0.00, -1.00, 205.6, 77.7)">b</text><text xml:space="preserve" font-family="HelveticaNeue-Medium,Helvetica Neue" font-size="28.9" fill="#EAEAEA" transform="matrix(1.00, 0.00, -0.00, -1.00, 223.3, 77.7)">e</text><text xml:space="preserve" font-family="HelveticaNeue-Medium,Helvetica Neue" font-size="28.9" fill="#EAEAEA" transform="matrix(1.00, 0.00, -0.00, -1.00, 239.3, 77.7)"> </text><text xml:space="preserve" font-family="HelveticaNeue-Medium,Helvetica Neue" font-size="28.9" fill="#EAEAEA" transform="matrix(1.00, 0.00, -0.00, -1.00, 247.4, 77.7)">q</text><text xml:space="preserve" font-family="HelveticaNeue-Medium,Helvetica Neue" font-size="28.9" fill="#EAEAEA" transform="matrix(1.00, 0.00, -0.00, -1.00, 265.0, 77.7)">u</text><text xml:space="preserve" font-family="HelveticaNeue-Medium,Helvetica Neue" font-size="28.9" fill="#EAEAEA" transform="matrix(1.00, 0.00, -0.00, -1.00, 281.6, 77.7)">i</text><text xml:space="preserve" font-family="HelveticaNeue-Medium,Helvetica Neue" font-size="28.9" fill="#EAEAEA" transform="matrix(1.00, 0.00, -0.00, -1.00, 288.6, 77.7)">t</text><text xml:space="preserve" font-family="HelveticaNeue-Medium,Helvetica Neue" font-size="28.9" fill="#EAEAEA" transform="matrix(1.00, 0.00, -0.00, -1.00, 298.2, 77.7)">e</text><text xml:space="preserve" font-family="HelveticaNeue-Medium,Helvetica Neue" font-size="28.9" fill="#EAEAEA" transform="matrix(1.00, 0.00, -0.00, -1.00, 314.3, 77.7)"> </text><text xml:space="preserve" font-family="HelveticaNeue-Medium,Helvetica Neue" font-size="28.9" fill="#EAEAEA" transform="matrix(1.00, 0.00, -0.00, -1.00, 322.3, 77.7)">c</text><text xml:space="preserve" font-family="HelveticaNeue-Medium,Helvetica Neue" font-size="28.9" fill="#EAEAEA" transform="matrix(1.00, 0.00, -0.00, -1.00, 338.4, 77.7)">o</text><text xml:space="preserve" font-family="HelveticaNeue-Medium,Helvetica Neue" font-size="28.9" fill="#EAEAEA" transform="matrix(1.00, 0.00, -0.00, -1.00, 355.5, 77.7)">m</text><text xml:space="preserve" font-family="HelveticaNeue-Medium,Helvetica Neue" font-size="28.9" fill="#EAEAEA" transform="matrix(1.00, 0.00, -0.00, -1.00, 380.7, 77.7)">p</text><text xml:space="preserve" font-family="HelveticaNeue-Medium,Helvetica Neue" font-size="28.9" fill="#EAEAEA" transform="matrix(1.00, 0.00, -0.00, -1.00, 398.3, 77.7)">l</text><text xml:space="preserve" font-family="HelveticaNeue-Medium,Helvetica Neue" font-size="28.9" fill="#EAEAEA" transform="matrix(1.00, 0.00, -0.00, -1.00, 405.3, 77.7)">i</text><text xml:space="preserve" font-family="HelveticaNeue-Medium,Helvetica Neue" font-size="28.9" fill="#EAEAEA" transform="matrix(1.00, 0.00, -0.00, -1.00, 412.2, 77.7)">c</text><text xml:space="preserve" font-family="HelveticaNeue-Medium,Helvetica Neue" font-size="28.9" fill="#EAEAEA" transform="matrix(1.00, 0.00, -0.00, -1.00, 428.3, 77.7)">a</text><text xml:space="preserve" font-family="HelveticaNeue-Medium,Helvetica Neue" font-size="28.9" fill="#EAEAEA" transform="matrix(1.00, 0.00, -0.00, -1.00, 444.4, 77.7)">t</text><text xml:space="preserve" font-family="HelveticaNeue-Medium,Helvetica Neue" font-size="28.9" fill="#EAEAEA" transform="matrix(1.00, 0.00, -0.00, -1.00, 454.0, 77.7)">e</text><text xml:space="preserve" font-family="HelveticaNeue-Medium,Helvetica Neue" font-size="28.9" fill="#EAEAEA" transform="matrix(1.00, 0.00, -0.00, -1.00, 470.1, 77.7)">d</text><text xml:space="preserve" font-family="HelveticaNeue-Medium,Helvetica Neue" font-size="28.9" fill="#EAEAEA" transform="matrix(1.00, 0.00, -0.00, -1.00, 487.7, 77.7)"> </text><text xml:space="preserve" font-family="HelveticaNeue-Medium,Helvetica Neue" font-size="28.9" fill="#EAEAEA" transform="matrix(1.00, 0.00, -0.00, -1.00, 495.8, 77.7)">a</text><text xml:space="preserve" font-family="HelveticaNeue-Medium,Helvetica Neue" font-size="28.9" fill="#EAEAEA" transform="matrix(1.00, 0.00, -0.00, -1.00, 511.8, 77.7)">n</text><text xml:space="preserve" font-family="HelveticaNeue-Medium,Helvetica Neue" font-size="28.9" fill="#EAEAEA" transform="matrix(1.00, 0.00, -0.00, -1.00, 528.4, 77.7)">d</text><text xml:space="preserve" font-family="HelveticaNeue-Medium,Helvetica Neue" font-size="28.9" fill="#EAEAEA" transform="matrix(1.00, 0.00, -0.00, -1.00, 546.1, 77.7)"> </text><image xlink:href="96A1B229D12E5CBF87E75D3F6C2D68D3.png" width="545.00" height="36.00" transform="matrix(1.00, 0.00, -0.00, -1.00, 2.0, 66.0)"></image><text xml:space="preserve" font-family="HelveticaNeue-Medium,Helvetica Neue" font-size="28.9" fill="#EAEAEA" transform="matrix(1.00, 0.00, -0.00, -1.00, 5.9, 42.7)">t</text><text xml:space="preserve" font-family="HelveticaNeue-Medium,Helvetica Neue" font-size="28.9" fill="#EAEAEA" transform="matrix(1.00, 0.00, -0.00, -1.00, 15.5, 42.7)">w</text><text xml:space="preserve" font-family="HelveticaNeue-Medium,Helvetica Neue" font-size="28.9" fill="#EAEAEA" transform="matrix(1.00, 0.00, -0.00, -1.00, 38.0, 42.7)">o</text><text xml:space="preserve" font-family="HelveticaNeue-Medium,Helvetica Neue" font-size="28.9" fill="#EAEAEA" transform="matrix(1.00, 0.00, -0.00, -1.00, 55.1, 42.7)"> </text><text xml:space="preserve" font-family="HelveticaNeue-Medium,Helvetica Neue" font-size="28.9" fill="#EAEAEA" transform="matrix(1.00, 0.00, -0.00, -1.00, 63.2, 42.7)">v</text><text xml:space="preserve" font-family="HelveticaNeue-Medium,Helvetica Neue" font-size="28.9" fill="#EAEAEA" transform="matrix(1.00, 0.00, -0.00, -1.00, 78.2, 42.7)">e</text><text xml:space="preserve" font-family="HelveticaNeue-Medium,Helvetica Neue" font-size="28.9" fill="#EAEAEA" transform="matrix(1.00, 0.00, -0.00, -1.00, 94.2, 42.7)">r</text><text xml:space="preserve" font-family="HelveticaNeue-Medium,Helvetica Neue" font-size="28.9" fill="#EAEAEA" transform="matrix(1.00, 0.00, -0.00, -1.00, 104.4, 42.7)">y</text><text xml:space="preserve" font-family="HelveticaNeue-Medium,Helvetica Neue" font-size="28.9" fill="#EAEAEA" transform="matrix(1.00, 0.00, -0.00, -1.00, 119.4, 42.7)"> </text><text xml:space="preserve" font-family="HelveticaNeue-Medium,Helvetica Neue" font-size="28.9" fill="#EAEAEA" transform="matrix(1.00, 0.00, -0.00, -1.00, 127.4, 42.7)">d</text><text xml:space="preserve" font-family="HelveticaNeue-Medium,Helvetica Neue" font-size="28.9" fill="#EAEAEA" transform="matrix(1.00, 0.00, -0.00, -1.00, 145.1, 42.7)">i</text><text xml:space="preserve" font-family="HelveticaNeue-Medium,Helvetica Neue" font-size="28.9" fill="#EAEAEA" transform="matrix(1.00, 0.00, -0.00, -1.00, 152.1, 42.7)">f</text><text xml:space="preserve" font-family="HelveticaNeue-Medium,Helvetica Neue" font-size="28.9" fill="#EAEAEA" transform="matrix(1.00, 0.00, -0.00, -1.00, 160.6, 42.7)">f</text><text xml:space="preserve" font-family="HelveticaNeue-Medium,Helvetica Neue" font-size="28.9" fill="#EAEAEA" transform="matrix(1.00, 0.00, -0.00, -1.00, 169.7, 42.7)">e</text><text xml:space="preserve" font-family="HelveticaNeue-Medium,Helvetica Neue" font-size="28.9" fill="#EAEAEA" transform="matrix(1.00, 0.00, -0.00, -1.00, 185.8, 42.7)">r</text><text xml:space="preserve" font-family="HelveticaNeue-Medium,Helvetica Neue" font-size="28.9" fill="#EAEAEA" transform="matrix(1.00, 0.00, -0.00, -1.00, 195.5, 42.7)">e</text><text xml:space="preserve" font-family="HelveticaNeue-Medium,Helvetica Neue" font-size="28.9" fill="#EAEAEA" transform="matrix(1.00, 0.00, -0.00, -1.00, 211.5, 42.7)">n</text><text xml:space="preserve" font-family="HelveticaNeue-Medium,Helvetica Neue" font-size="28.9" fill="#EAEAEA" transform="matrix(1.00, 0.00, -0.00, -1.00, 228.1, 42.7)">t</text><text xml:space="preserve" font-family="HelveticaNeue-Medium,Helvetica Neue" font-size="28.9" fill="#EAEAEA" transform="matrix(1.00, 0.00, -0.00, -1.00, 237.7, 42.7)"> </text><text xml:space="preserve" font-family="HelveticaNeue-Medium,Helvetica Neue" font-size="28.9" fill="#EAEAEA" transform="matrix(1.00, 0.00, -0.00, -1.00, 245.8, 42.7)">i</text><text xml:space="preserve" font-family="HelveticaNeue-Medium,Helvetica Neue" font-size="28.9" fill="#EAEAEA" transform="matrix(1.00, 0.00, -0.00, -1.00, 252.7, 42.7)">m</text><text xml:space="preserve" font-family="HelveticaNeue-Medium,Helvetica Neue" font-size="28.9" fill="#EAEAEA" transform="matrix(1.00, 0.00, -0.00, -1.00, 277.9, 42.7)">a</text><text xml:space="preserve" font-family="HelveticaNeue-Medium,Helvetica Neue" font-size="28.9" fill="#EAEAEA" transform="matrix(1.00, 0.00, -0.00, -1.00, 294.0, 42.7)">g</text><text xml:space="preserve" font-family="HelveticaNeue-Medium,Helvetica Neue" font-size="28.9" fill="#EAEAEA" transform="matrix(1.00, 0.00, -0.00, -1.00, 311.1, 42.7)">e</text><text xml:space="preserve" font-family="HelveticaNeue-Medium,Helvetica Neue" font-size="28.9" fill="#EAEAEA" transform="matrix(1.00, 0.00, -0.00, -1.00, 327.2, 42.7)">s</text><text xml:space="preserve" font-family="HelveticaNeue-Medium,Helvetica Neue" font-size="28.9" fill="#EAEAEA" transform="matrix(1.00, 0.00, -0.00, -1.00, 342.2, 42.7)"> </text><text xml:space="preserve" font-family="HelveticaNeue-Medium,Helvetica Neue" font-size="28.9" fill="#EAEAEA" transform="matrix(1.00, 0.00, -0.00, -1.00, 350.2, 42.7)">c</text><text xml:space="preserve" font-family="HelveticaNeue-Medium,Helvetica Neue" font-size="28.9" fill="#EAEAEA" transform="matrix(1.00, 0.00, -0.00, -1.00, 366.3, 42.7)">o</text><text xml:space="preserve" font-family="HelveticaNeue-Medium,Helvetica Neue" font-size="28.9" fill="#EAEAEA" transform="matrix(1.00, 0.00, -0.00, -1.00, 383.4, 42.7)">u</text><text xml:space="preserve" font-family="HelveticaNeue-Medium,Helvetica Neue" font-size="28.9" fill="#EAEAEA" transform="matrix(1.00, 0.00, -0.00, -1.00, 400.0, 42.7)">l</text><text xml:space="preserve" font-family="HelveticaNeue-Medium,Helvetica Neue" font-size="28.9" fill="#EAEAEA" transform="matrix(1.00, 0.00, -0.00, -1.00, 407.0, 42.7)">d</text><text xml:space="preserve" font-family="HelveticaNeue-Medium,Helvetica Neue" font-size="28.9" fill="#EAEAEA" transform="matrix(1.00, 0.00, -0.00, -1.00, 424.6, 42.7)"> </text><text xml:space="preserve" font-family="HelveticaNeue-Medium,Helvetica Neue" font-size="28.9" fill="#EAEAEA" transform="matrix(1.00, 0.00, -0.00, -1.00, 432.6, 42.7)">p</text><text xml:space="preserve" font-family="HelveticaNeue-Medium,Helvetica Neue" font-size="28.9" fill="#EAEAEA" transform="matrix(1.00, 0.00, -0.00, -1.00, 450.3, 42.7)">r</text><text xml:space="preserve" font-family="HelveticaNeue-Medium,Helvetica Neue" font-size="28.9" fill="#EAEAEA" transform="matrix(1.00, 0.00, -0.00, -1.00, 460.0, 42.7)">o</text><text xml:space="preserve" font-family="HelveticaNeue-Medium,Helvetica Neue" font-size="28.9" fill="#EAEAEA" transform="matrix(1.00, 0.00, -0.00, -1.00, 477.1, 42.7)">d</text><text xml:space="preserve" font-family="HelveticaNeue-Medium,Helvetica Neue" font-size="28.9" fill="#EAEAEA" transform="matrix(1.00, 0.00, -0.00, -1.00, 494.7, 42.7)">u</text><text xml:space="preserve" font-family="HelveticaNeue-Medium,Helvetica Neue" font-size="28.9" fill="#EAEAEA" transform="matrix(1.00, 0.00, -0.00, -1.00, 511.3, 42.7)">c</text><text xml:space="preserve" font-family="HelveticaNeue-Medium,Helvetica Neue" font-size="28.9" fill="#EAEAEA" transform="matrix(1.00, 0.00, -0.00, -1.00, 527.4, 42.7)">e</text><text xml:space="preserve" font-family="HelveticaNeue-Medium,Helvetica Neue" font-size="28.9" fill="#EAEAEA" transform="matrix(1.00, 0.00, -0.00, -1.00, 543.5, 42.7)"> </text><image xlink:href="98566E74D8E843A0653C94633F091550.png" width="212.00" height="30.00" transform="matrix(1.00, 0.00, -0.00, -1.00, 2.0, 31.0)"></image><text xml:space="preserve" font-family="HelveticaNeue-Medium,Helvetica Neue" font-size="28.9" fill="#EAEAEA" transform="matrix(1.00, 0.00, -0.00, -1.00, 5.9, 7.7)">t</text><text xml:space="preserve" font-family="HelveticaNeue-Medium,Helvetica Neue" font-size="28.9" fill="#EAEAEA" transform="matrix(1.00, 0.00, -0.00, -1.00, 15.5, 7.7)">h</text><text xml:space="preserve" font-family="HelveticaNeue-Medium,Helvetica Neue" font-size="28.9" fill="#EAEAEA" transform="matrix(1.00, 0.00, -0.00, -1.00, 32.1, 7.7)">e</text><text xml:space="preserve" font-family="HelveticaNeue-Medium,Helvetica Neue" font-size="28.9" fill="#EAEAEA" transform="matrix(1.00, 0.00, -0.00, -1.00, 48.2, 7.7)"> </text><text xml:space="preserve" font-family="HelveticaNeue-Medium,Helvetica Neue" font-size="28.9" fill="#EAEAEA" transform="matrix(1.00, 0.00, -0.00, -1.00, 56.2, 7.7)">s</text><text xml:space="preserve" font-family="HelveticaNeue-Medium,Helvetica Neue" font-size="28.9" fill="#EAEAEA" transform="matrix(1.00, 0.00, -0.00, -1.00, 71.2, 7.7)">a</text><text xml:space="preserve" font-family="HelveticaNeue-Medium,Helvetica Neue" font-size="28.9" fill="#EAEAEA" transform="matrix(1.00, 0.00, -0.00, -1.00, 87.3, 7.7)">m</text><text xml:space="preserve" font-family="HelveticaNeue-Medium,Helvetica Neue" font-size="28.9" fill="#EAEAEA" transform="matrix(1.00, 0.00, -0.00, -1.00, 112.4, 7.7)">e</text><text xml:space="preserve" font-family="HelveticaNeue-Medium,Helvetica Neue" font-size="28.9" fill="#EAEAEA" transform="matrix(1.00, 0.00, -0.00, -1.00, 128.5, 7.7)"> </text><text xml:space="preserve" font-family="HelveticaNeue-Medium,Helvetica Neue" font-size="28.9" fill="#EAEAEA" transform="matrix(1.00, 0.00, -0.00, -1.00, 136.5, 7.7)">a</text><text xml:space="preserve" font-family="HelveticaNeue-Medium,Helvetica Neue" font-size="28.9" fill="#EAEAEA" transform="matrix(1.00, 0.00, -0.00, -1.00, 152.6, 7.7)">u</text><text xml:space="preserve" font-family="HelveticaNeue-Medium,Helvetica Neue" font-size="28.9" fill="#EAEAEA" transform="matrix(1.00, 0.00, -0.00, -1.00, 169.2, 7.7)">d</text><text xml:space="preserve" font-family="HelveticaNeue-Medium,Helvetica Neue" font-size="28.9" fill="#EAEAEA" transform="matrix(1.00, 0.00, -0.00, -1.00, 186.8, 7.7)">i</text><text xml:space="preserve" font-family="HelveticaNeue-Medium,Helvetica Neue" font-size="28.9" fill="#EAEAEA" transform="matrix(1.00, 0.00, -0.00, -1.00, 193.8, 7.7)">o</text><image xlink:href="1D9F8DA0C9FB3AC600266333F7156BC3.png" width="13.00" height="13.00" transform="matrix(1.00, 0.00, -0.00, -1.00, 208.0, 14.0)"></image><text xml:space="preserve" font-family="HelveticaNeue-Medium,Helvetica Neue" font-size="28.9" fill="#EAEAEA" transform="matrix(1.00, 0.00, -0.00, -1.00, 210.9, 7.7)">.</text></g></svg>